<svg width="263" height="68" viewBox="0 0 263 68" fill="none" xmlns="http://www.w3.org/2000/svg">
<path fill-rule="evenodd" clip-rule="evenodd" d="M50.3643 42.9958H60.3711V22.9887H70.3714V68H40.3639V57.9996H60.3711V52.9962H40.3639V22.9887H50.3643V42.9958ZM200.268 22.9887H230.276V52.9962H210.269V68H200.268V22.9887ZM8.01054 7.99145H18.0109V22.9887H38.018V52.9962H8.01054V7.99145ZM135.555 7.98508H165.563V37.9925H145.562V52.9962H135.555V7.98508ZM92.5083 52.9962V22.9887H102.509V22.9951H122.516V39.601H102.509V42.9958H122.516V52.9962H92.5083ZM262.629 52.9962H232.622V22.9887H262.629V52.9962ZM197.922 52.9962H187.916H167.915V36.3904H187.916V32.9891H167.915V22.9887H197.922V52.9962ZM82.724 22.9887H90.156V32.9955H82.724V52.1698H72.7173V7.99145H82.724V22.9887ZM0 11.2528V0H11.5135V2.25695H2.26331V11.2528H0ZM4.01163 3.75087H9.91143V6.00782H6.27487V9.64431H4.01163V3.75087Z" fill="#DDE341"/>
</svg>
